<?xml version="1.0" encoding="utf-8"?>
<!-- Generator: Adobe Illustrator 22.0.0, SVG Export Plug-In . SVG Version: 6.00 Build 0)  -->
<svg version="1.1" id="Layer_1" xmlns="http://www.w3.org/2000/svg" xmlns:xlink="http://www.w3.org/1999/xlink" x="0px" y="0px"
	 viewBox="50 130 200 40" style="enable-background:new 0 0 300 300;" xml:space="preserve">
<style type="text/css">
	.st0{clip-path:url(#SVGID_2_);}
	.st1{fill:#3BAECC;}
	.st2{fill:#FEFEFE;}
	.st3{fill:#FDFEFE;}
	.st4{fill:#FCFDFD;}
</style>
<g>
	<defs>
		<rect id="SVGID_1_" x="50" y="50" width="200" height="200"/>
	</defs>
	<clipPath id="SVGID_2_">
		<use xlink:href="#SVGID_1_"  style="overflow:visible;"/>
	</clipPath>
	<g class="st0">
		<g>
			<path class="st1" d="M111,141.7c0.1,4.5,0.2,9,0.3,13.5c0,1.7,0.1,3.5,0.2,5.2c0,0.6,0.1,1.3,0.3,1.9c0.2,0.6,0.6,1,1.2,1.1
				c0.5,0.1,1,0.2,1.5,0.2c0.2,0,0.5,0,0.5,0.3c0,0.3-0.3,0.3-0.5,0.3c-1.1,0-2.3,0-3.4-0.1c-1.4-0.1-2.9,0.1-4.3,0.1
				c-0.3,0-0.8,0.2-0.8-0.3c0-0.5,0.5-0.3,0.8-0.3c1.6-0.2,2-0.6,2.1-2.3c0.2-4.9,0.1-9.9,0.1-14.8c0-3.1,0-6.2,0-9.4
				c0-0.4,0-0.7,0.1-1.1c0.2-0.5,0.4-0.6,0.8-0.3c0.3,0.2,0.5,0.4,0.8,0.6c4.4,4.6,8.7,9.1,13.1,13.7c2.8,2.9,5.5,5.8,8.4,8.9
				c0-0.3,0-0.6,0-0.8c0-2.5-0.1-4.9-0.1-7.4c-0.1-3.5-0.1-7-0.2-10.5c0-0.6,0-1.2-0.2-1.8c-0.2-1-0.6-1.4-1.7-1.5
				c-0.4,0-0.9-0.1-1.3-0.1c-0.2,0-0.4,0-0.4-0.3c0-0.3,0.2-0.3,0.4-0.3c1,0,2,0,3.1,0c1.4,0,2.9,0,4.3,0c0.1,0,0.3,0,0.4,0
				c0.2,0,0.4,0,0.4,0.3c0,0.3-0.2,0.3-0.4,0.3c-0.3,0-0.6,0-0.8,0.1c-0.8,0.1-1.2,0.6-1.3,1.4c-0.1,0.5-0.1,1-0.1,1.5
				c0,5.6,0,11.2,0,16.8c0,2.4,0,4.8-0.1,7.2c0,0.2,0.1,0.5-0.2,0.6c-0.2,0.1-0.5-0.1-0.7-0.2c-1.1-0.8-2-1.7-3-2.7
				c-3-3-6-5.9-8.9-8.9c-3.4-3.6-6.8-7.2-10.2-10.8C111.1,141.8,111.1,141.8,111,141.7z"/>
			<path class="st1" d="M151,148.8c0-3.5,0-6.9,0-10.4c0-0.5-0.1-0.6-0.6-0.6c-2.3,0.1-4.5,0-6.8,0.2c-1.3,0.1-2.1,0.8-2.5,1.9
				c-0.1,0.1-0.1,0.3-0.2,0.4c-0.1,0.2-0.2,0.3-0.4,0.3c-0.2-0.1-0.3-0.3-0.2-0.4c0.3-1.4,0.5-2.8,0.9-4.2c0.1-0.3,0.2-0.5,0.6-0.4
				c1.3,0.5,2.7,0.5,4.1,0.5c5.3,0,10.6,0,15.9,0c0.8,0,1.7-0.1,2.5-0.3c0.3-0.1,0.5,0,0.5,0.4c0,1.4-0.1,2.9-0.1,4.3
				c0,0.2-0.1,0.4-0.3,0.4c-0.3,0-0.3-0.2-0.3-0.4c0,0,0,0,0-0.1c-0.4-1.8-0.9-2.3-2.8-2.5c-1.6-0.2-3.2-0.2-4.8-0.2
				c-0.5,0-1,0-1.5,0c-0.4,0-0.4,0.1-0.4,0.4c0,6.3,0,12.6,0,18.9c0,1.6-0.1,3.2,0.3,4.8c0.2,0.9,0.5,1.2,1.4,1.4
				c0.5,0.1,1,0.1,1.5,0.2c0.2,0,0.6-0.1,0.6,0.3c0,0.4-0.4,0.3-0.6,0.3c-1.3,0-2.5,0-3.8-0.1c-1.5-0.1-3.1,0.1-4.6,0.1
				c-0.1,0-0.3,0-0.4,0c-0.2,0-0.5,0-0.5-0.3c0-0.3,0.3-0.3,0.5-0.3c0.2,0,0.4-0.1,0.7-0.1c0.7-0.1,1.1-0.5,1.3-1.2
				c0.2-1,0.3-2.1,0.3-3.2C151,155.6,151,152.2,151,148.8C151,148.8,151,148.8,151,148.8z"/>
			<path class="st1" d="M63.7,164.2c-2.5,0-5-0.1-7.5-0.2c-1.6,0-3.3,0.1-5,0.1c-0.1,0-0.3,0-0.4,0c-0.2,0-0.3-0.1-0.3-0.3
				c0-0.2,0.1-0.3,0.3-0.3c0.2,0,0.4,0,0.6-0.1c1.1-0.2,1.3-0.4,1.5-1.5c0.3-1.8,0.3-3.6,0.3-5.4c0-5.4,0-10.8,0-16.2
				c0-0.7,0-1.5-0.2-2.2c-0.2-0.8-0.6-1.2-1.4-1.3c-0.4-0.1-0.8-0.1-1.2-0.1c-0.2,0-0.5-0.1-0.5-0.4c0-0.3,0.3-0.3,0.5-0.3
				c1.2,0,2.3,0,3.5,0c1.7,0,3.3,0,5,0c0.3,0,0.8-0.2,0.8,0.3c0,0.4-0.5,0.3-0.8,0.3c-0.2,0-0.4,0-0.6,0c-1.1,0.2-1.5,0.6-1.6,1.7
				c-0.1,1-0.1,2-0.1,3c0,5.1,0,10.3,0,15.4c0,1.3,0,2.6,0.3,3.8c0.2,0.9,0.6,1.5,1.5,1.6c2.3,0.5,4.6,0.5,6.9,0.2
				c1.4-0.2,2.2-1,2.6-2.3c0.1-0.2,0.1-0.4,0.2-0.6c0.1-0.2,0.1-0.6,0.4-0.5c0.3,0.1,0.3,0.4,0.3,0.7c-0.1,1.2-0.3,2.4-0.6,3.6
				c-0.2,0.7-0.4,0.9-1.2,1C66,164.2,64.8,164.2,63.7,164.2z"/>
			<path class="st1" d="M86.5,167c-9.4,0-16.9-7.6-17-17c0-9.5,7.6-17.1,17.2-17c9.3,0.1,16.8,7.6,16.8,17
				C103.5,159.7,95.6,167.1,86.5,167z"/>
			<path class="st1" d="M249.6,163.5c-0.1,0-0.3,0-0.4,0c-1.3-0.1-2.4-0.6-3.2-1.7c-0.3-0.4-0.5-0.8-0.8-1.3c-1.1-2.3-2-4.7-3-7.1
				c-2.3-5.7-4.6-11.4-7-17c-0.2-0.4-0.2-1-0.8-1c-0.5,0-0.6,0.6-0.7,1c-2.6,6.6-5.1,13.1-7.7,19.7c-0.7,1.7-1.3,3.4-2,5
				c-0.4,0.8-0.9,1.6-1.7,2c-0.3,0.2-0.6,0.2-0.9,0.1c-1.5-0.5-2.6-1.5-3.6-2.6c-2.6-2.7-4.8-5.7-7.2-8.6c-0.7-0.8-0.7-0.8,0.1-1.6
				c0.1-0.1,0.2-0.2,0.4-0.3c1.7-1.6,3-3.5,3.4-5.8c0.7-3.4-1.1-6.4-4.3-7.6c-1.2-0.4-2.5-0.6-3.8-0.7c-1.7,0-3.5,0-5.2,0
				c0,0,0,0,0,0c-0.6,0-1.2,0-1.7,0c-1.4,0-2.8,0-4.2,0c-0.2,0-0.5,0-0.4,0.3c0,0.3,0.2,0.3,0.4,0.3c0.4,0,0.8,0.1,1.2,0.1
				c1,0.1,1.4,0.5,1.5,1.5c0.2,1.5,0.1,3,0.2,4.6c0,5.1,0.1,10.1,0,15.2c0,1.4,0,2.9-0.4,4.3c-0.1,0.7-0.5,1.1-1.2,1.1
				c-0.2,0-0.5,0.1-0.7,0.1c-0.2,0-0.4,0-0.4,0.3c0,0.3,0.2,0.3,0.4,0.3c0.1,0,0.3,0,0.4,0c1.7,0,3.4-0.1,5.2,0c1,0.1,2.1,0,3.1,0
				c0.2,0,0.6,0.1,0.6-0.3c0-0.4-0.3-0.3-0.6-0.3c-0.4,0-0.8-0.1-1.2-0.1c-1.2-0.2-1.6-0.6-1.7-1.8c-0.3-2.9-0.2-5.9-0.2-8.8
				c0-0.3,0.1-0.5,0.5-0.4c1.4,0,2.9,0.1,4.3,0c0.5,0,0.9,0.2,1.2,0.6c0.7,1,1.4,1.9,2.1,2.8c1.6,2,3.1,4.1,4.9,6
				c1,1.1,2.2,1.9,3.7,2.2c1.5,0.3,3.1,0.2,4.7,0.2c0.8,0,1.7-0.2,2.5-0.1c0.9,0.1,1.8,0.1,2.7,0.1c0.2,0,0.4,0,0.4-0.3
				c0-0.3-0.2-0.3-0.4-0.3c-0.1,0-0.3,0-0.4,0c-0.9,0-1.3-0.5-1.2-1.4c0.1-0.5,0.2-1,0.3-1.5c0.8-2.1,1.5-4.3,2.3-6.4
				c0.1-0.3,0.3-0.4,0.7-0.4c2.8,0,5.6,0,8.4,0c0.4,0,0.6,0.2,0.7,0.5c0.3,0.9,0.7,1.8,1.1,2.6c0.7,1.8,1.5,3.7,2.2,5.5
				c0.2,0.4,0.2,0.7-0.2,1c-0.1,0.1-0.4,0.1-0.4,0.4c0.1,0.2,0.3,0.2,0.5,0.2c2.4,0.2,4.8,0.1,7.2,0.1c0.1,0,0.1,0,0.2,0
				c0.2,0,0.4-0.1,0.3-0.3C250,163.6,249.8,163.5,249.6,163.5z M206.2,151c-1.3,0-2.6-0.1-3.8-0.4c-0.6-0.1-0.8-0.4-0.8-1
				c0-1.9,0-3.7,0-5.6c0-1.8,0-3.7,0-5.5c0-0.8,0-0.8,0.8-0.9c1.2-0.2,2.4-0.3,3.6-0.1c2.5,0.4,4.1,1.9,4.8,4.3
				c0.6,1.8,0.6,3.7,0.1,5.5C210.1,150.1,208.6,151,206.2,151z M237.6,152.3c-1.2,0-2.4,0-3.6,0c-1.2,0-2.3,0-3.5,0
				c-0.4,0-0.6-0.1-0.4-0.5c1.2-3.3,2.3-6.6,3.5-9.8c0.1-0.2,0.1-0.4,0.3-0.4c0.2,0,0.3,0.2,0.3,0.4c1.2,3.3,2.5,6.6,3.7,9.9
				C238.2,152.2,238,152.3,237.6,152.3z"/>
			<path class="st1" d="M192.9,163.5c-0.1,0-0.3,0-0.4,0c-1.3-0.1-2.4-0.6-3.2-1.7c-0.4-0.6-0.8-1.3-1.1-2c-2.7-6.5-5.3-13.1-8-19.6
				c-0.6-1.4-1.2-2.8-1.8-4.3c-0.1-0.3-0.2-0.5-0.6-0.6c-0.3,0-0.4,0.3-0.6,0.5c-0.1,0.1-0.1,0.3-0.2,0.5
				c-2.4,6.2-4.8,12.4-7.2,18.6c-0.8,2-1.6,4.1-2.4,6.1c-0.6,1.5-1.8,2.4-3.5,2.4c-0.3,0-0.7-0.1-0.7,0.3c0,0.4,0.4,0.3,0.7,0.3
				c1.3,0,2.6-0.1,4-0.1c1.1,0,2.2,0.1,3.3,0.1c0.3,0,0.7,0.1,0.7-0.3c0-0.4-0.4-0.3-0.6-0.3c-0.1,0-0.1,0-0.2,0
				c-0.9-0.1-1.2-0.5-1.1-1.4c0.1-0.6,0.2-1.2,0.4-1.7c0.7-2,1.5-4,2.2-6.1c0.1-0.4,0.4-0.5,0.8-0.5c1.4,0,2.7,0,4.1,0
				c1.4,0,2.8,0,4.2,0c0.3,0,0.5,0,0.7,0.4c1.1,2.8,2.3,5.6,3.4,8.4c0.1,0.3,0,0.6-0.2,0.8c-0.1,0.1-0.4,0.1-0.4,0.4
				c0.1,0.3,0.3,0.2,0.5,0.2c2.4,0.2,4.8,0.1,7.1,0.1c0.1,0,0.2,0,0.3,0c0.1,0,0.3-0.1,0.3-0.2C193.2,163.6,193.1,163.6,192.9,163.5
				z M180.9,152.2c-1.2,0-2.4,0-3.6,0c-1.2,0-2.4,0-3.6,0c-0.4,0-0.5-0.1-0.3-0.5c1.2-3.3,2.3-6.6,3.5-9.9c0.1-0.2,0.1-0.4,0.3-0.4
				c0.2,0,0.2,0.2,0.3,0.4c1.2,3.3,2.5,6.7,3.7,10C181.3,152.2,181.2,152.3,180.9,152.2z"/>
		</g>
		<g>
			<path class="st2" d="M88,152.3c-0.1-0.2-0.3-0.3-0.4-0.4c-0.8-1-1.6-1.8-2.4-2.7c-0.3-0.4-0.6-0.3-0.9,0c-0.3,0.3-0.6,0.6-1,0.9
				c-0.2,0.2-0.4,0.2-0.5-0.1c-0.1-0.2-0.4-0.3-0.1-0.6c0.4-0.4,0.8-0.8,1.3-1.2c0.6-0.5,0.9-0.5,1.4,0.1c0.7,0.8,1.5,1.6,2.2,2.4
				c0.3,0.3,0.5,0.3,0.8,0c0.8-0.8,1.7-1.5,2.5-2.3c0.9-0.8,1.5-0.7,2.3,0.1c0.9,1,1.7,1.9,2.5,2.9c0.2,0.2,0.2,0.4,0,0.6
				c-0.3,0.3-0.4,0.1-0.5-0.1c-0.7-0.8-1.5-1.7-2.2-2.6c-0.7-0.8-0.9-0.8-1.7-0.1c-1,0.9-1.9,1.8-2.9,2.6
				C88.3,152.1,88.1,152.1,88,152.3z"/>
			<path class="st3" d="M76.9,151.5c-0.4,0-0.7-0.2-1-0.6c-0.4-0.4-0.7-0.8-1.1-1.2c-0.6-0.6-0.8-0.6-1.4-0.1
				c-0.6,0.5-1.2,1-1.8,1.6c-0.3,0.3-0.4,0.1-0.6-0.1c-0.2-0.2-0.3-0.3,0-0.6c0.7-0.6,1.3-1.2,2-1.8c0.8-0.7,1.4-0.6,2.1,0.2
				c0.4,0.5,0.8,0.9,1.2,1.4c0.4,0.4,0.7,0.4,1.1,0c0.2-0.2,0.5-0.4,0.6-0.6c0.2-0.3,0.4-0.3,0.7,0c0.3,0.3,0.1,0.5-0.1,0.6
				C78.3,150.9,77.8,151.5,76.9,151.5z"/>
			<path class="st3" d="M100,147.7c0.4,0,0.7,0.1,0.9,0.4c0.5,0.5,0.9,1.1,1.4,1.6c0.2,0.2,0,0.3-0.1,0.5c-0.2,0.2-0.3,0.2-0.4,0
				c-0.3-0.4-0.6-0.8-1-1.1c-0.6-0.7-0.8-0.7-1.5-0.1c-0.7,0.6-1.4,1.2-2,1.8c-0.2,0.2-0.4,0.4-0.7,0c-0.3-0.3-0.2-0.4,0.1-0.7
				c0.8-0.7,1.5-1.4,2.3-2C99.2,147.9,99.5,147.7,100,147.7z"/>
			<path class="st3" d="M82.1,150.9c-0.1,0.2-0.2,0.3-0.4,0.4c-0.2,0.1-0.3,0-0.3-0.1c-0.7-0.8-1.4-1.6-2.1-2.3
				c-0.6-0.7-0.9-0.7-1.6-0.1c-0.2,0.1-0.3,0.3-0.5,0.4c-0.2,0.2-0.3,0.4-0.7,0.1c-0.3-0.3-0.2-0.5,0.1-0.7c0.3-0.3,0.6-0.6,1-0.8
				c0.6-0.4,1.2-0.4,1.7,0.1c0.9,0.9,1.7,1.9,2.6,2.9C82.1,150.8,82.1,150.9,82.1,150.9z"/>
			<path class="st4" d="M100.2,149.7c0.3,0,0.4,0.1,0.5,0.2c0.4,0.5,0.9,1,1.3,1.5c0.2,0.2,0.1,0.3-0.1,0.5c-0.2,0.2-0.3,0.2-0.5,0
				c-0.3-0.3-0.6-0.7-0.9-1c-0.2-0.3-0.4-0.2-0.7,0c-0.4,0.4-0.8,0.7-1.1,1.1c-0.2,0.2-0.3,0.1-0.4-0.1c-0.1-0.2-0.4-0.3-0.2-0.5
				c0.6-0.5,1.1-1.1,1.7-1.6C100,149.7,100.1,149.7,100.2,149.7z"/>
		</g>
	</g>
</g>
</svg>
